<svg xmlns="http://www.w3.org/2000/svg" width="16" height="34" viewBox="0 0 16 34">
  <g fill="none" fill-rule="evenodd">
    <path fill="#DE001B" d="M0 0H16V34H0z"/>
    <path fill="#FFF" fill-rule="nonzero" d="M4.435 10.65h1.24V7.48h1.98v2.6h1.24v-2.6h1.71v3.06h1.23V6h-7.4v4.65zm0 2.8l1.64.79c.38.18.77.35 1.22.54v.04c-.45.22-.84.39-1.22.58l-1.64.83v1.64l3.75-2.08 3.65 1.95v-1.56l-1.52-.7c-.35-.16-.71-.31-1.17-.49v-.05c.46-.22.82-.38 1.17-.55l1.52-.74v-1.64l-3.58 1.95-3.82-2.08v1.57zm0 7.45h7.4v-1.48h-7.4v1.48zm0 5.27h6.17v2.1h1.23v-5.66h-1.23v2.08h-6.17v1.48z"/>
  </g>
</svg>
