<svg xmlns="http://www.w3.org/2000/svg" width="34" height="34" viewBox="0 0 34 34">
    <g fill="none" fill-rule="evenodd">
        <path d="M0 0H34V35.545H0z" transform="matrix(-1 0 0 1 34 0)"/>
        <g>
            <path fill="#D9DBE1" d="M25.81 0c2.816 0 5.1 2.283 5.1 5.1v4.25c1.763.358 3.09 1.917 3.09 3.786v13.91c0 2.133-1.73 3.863-3.864 3.863-.421 0-.827-.067-1.207-.192-.825 1.93-2.742 3.283-4.974 3.283h-13.91c-2.232 0-4.15-1.353-4.975-3.284-.379.126-.785.193-1.206.193C1.73 30.91 0 29.18 0 27.045V13.136c0-1.869 1.327-3.428 3.09-3.786V5.1c0-2.817 2.284-5.1 5.1-5.1z"/>
            <path fill="#555" fill-rule="nonzero" d="M24.727 10.146L23.854 9.273 16.998 16.125 10.146 9.273 9.273 10.146 16.126 16.998 9.273 23.854 10.146 24.727 16.998 17.872 23.854 24.727 24.727 23.854 17.873 16.998z"/>
        </g>
    </g>
</svg>
