<svg xmlns="http://www.w3.org/2000/svg" width="34" height="34" viewBox="0 0 34 34">
    <g fill="none" fill-rule="evenodd">
        <path d="M0 0L34 0 34 34 0 34z" transform="matrix(-1 0 0 1 34 0)"/>
        <g fill-rule="nonzero">
            <path fill="#2751BD" d="M25.81 7.727c2.816 0 5.1 2.284 5.1 5.1V28.9c0 2.817-2.284 5.1-5.1 5.1H8.19c-2.816 0-5.1-2.283-5.1-5.1V12.827c0-2.816 2.284-5.1 5.1-5.1h17.62z"/>
            <path fill="#5A83FA" d="M25.81 9.273H8.19c-1.88 0-3.42 1.461-3.545 3.31l-.009.244V28.9c0 1.881 1.462 3.421 3.312 3.546l.243.009h17.618c1.881 0 3.421-1.462 3.546-3.312l.009-.243V12.827c0-1.881-1.462-3.421-3.312-3.546l-.243-.008z"/>
            <path fill="#2751BD" d="M3.864 3.09c2.133 0 3.863 1.73 3.863 3.865v13.909c0 2.133-1.73 3.863-3.863 3.863C1.73 24.727 0 22.997 0 20.864V6.954c0-2.133 1.73-3.863 3.864-3.863z"/>
            <path fill="#5A83FA" d="M3.864 4.636c-1.205 0-2.196.92-2.308 2.095l-.01.224v13.909c0 1.28 1.037 2.318 2.318 2.318 1.205 0 2.195-.92 2.307-2.095l.01-.223V6.954c0-1.28-1.037-2.318-2.317-2.318z"/>
            <path fill="#2751BD" d="M30.136 3.09C32.27 3.09 34 4.82 34 6.956v13.909c0 2.133-1.73 3.863-3.864 3.863-2.133 0-3.863-1.73-3.863-3.863V6.954c0-2.133 1.73-3.863 3.863-3.863z"/>
            <path fill="#5A83FA" d="M30.136 4.636c-1.205 0-2.195.92-2.307 2.095l-.01.224v13.909c0 1.28 1.037 2.318 2.317 2.318 1.205 0 2.196-.92 2.308-2.095l.01-.223V6.954c0-1.28-1.037-2.318-2.318-2.318z"/>
            <path fill="#2751BD" d="M10.045 0C7.058 0 4.636 2.422 4.636 5.41c0 2.986 2.422 5.408 5.41 5.408h13.909c2.987 0 5.409-2.422 5.409-5.409 0-2.987-2.422-5.409-5.41-5.409H10.046z"/>
            <path fill="#5A83FA" d="M23.955 1.545h-13.91c-2.133 0-3.863 1.73-3.863 3.864 0 2.049 1.594 3.725 3.61 3.856l.253.008h13.91c2.133 0 3.863-1.73 3.863-3.864 0-2.048-1.594-3.725-3.61-3.855l-.253-.009z"/>
        </g>
    </g>
</svg>
