<svg xmlns="http://www.w3.org/2000/svg" width="34" height="34" viewBox="0 0 34 34">
    <g fill="none" fill-rule="evenodd">
        <path d="M0 0L34 0 34 34 0 34z" transform="matrix(-1 0 0 1 34 0)"/>
        <g fill-rule="nonzero">
            <path fill="#001846" d="M8.19 0c-2.816 0-5.1 2.283-5.1 5.1v16.073c0 2.816 2.284 5.1 5.1 5.1h17.62c2.816 0 5.1-2.284 5.1-5.1V5.1c0-2.817-2.284-5.1-5.1-5.1H8.19z"/>
            <path fill="#00256C" d="M25.81 1.545H8.19c-1.88 0-3.42 1.462-3.545 3.312l-.009.243v16.073c0 1.881 1.462 3.421 3.312 3.546l.243.008h17.618c1.881 0 3.421-1.461 3.546-3.31l.009-.244V5.1c0-1.881-1.462-3.421-3.312-3.546l-.243-.009z"/>
            <path fill="#001846" d="M3.864 9.273C1.73 9.273 0 11.003 0 13.136v13.91c0 2.133 1.73 3.863 3.864 3.863 2.133 0 3.863-1.73 3.863-3.864V13.136c0-2.133-1.73-3.863-3.863-3.863z"/>
            <path fill="#00256C" d="M3.864 10.818c-1.205 0-2.196.92-2.308 2.095l-.01.223v13.91c0 1.28 1.037 2.318 2.318 2.318 1.205 0 2.195-.92 2.307-2.095l.01-.224V13.136c0-1.28-1.037-2.318-2.317-2.318z"/>
            <path fill="#001846" d="M30.136 9.273c-2.133 0-3.863 1.73-3.863 3.863v13.91c0 2.133 1.73 3.863 3.863 3.863 2.134 0 3.864-1.73 3.864-3.864V13.136c0-2.133-1.73-3.863-3.864-3.863z"/>
            <path fill="#00256C" d="M30.136 10.818c-1.205 0-2.195.92-2.307 2.095l-.01.223v13.91c0 1.28 1.037 2.318 2.317 2.318 1.205 0 2.196-.92 2.308-2.095l.01-.224V13.136c0-1.28-1.037-2.318-2.318-2.318z"/>
            <path fill="#001846" d="M10.045 23.182c-2.987 0-5.409 2.422-5.409 5.409 0 2.987 2.422 5.409 5.41 5.409h13.909c2.987 0 5.409-2.422 5.409-5.41 0-2.986-2.422-5.408-5.41-5.408H10.046z"/>
            <path fill="#00256C" d="M23.955 24.727h-13.91c-2.133 0-3.863 1.73-3.863 3.864 0 2.048 1.594 3.725 3.61 3.855l.253.009h13.91c2.133 0 3.863-1.73 3.863-3.864 0-2.049-1.594-3.725-3.61-3.856l-.253-.008z"/>
        </g>
    </g>
</svg>
